<svg xmlns="http://www.w3.org/2000/svg" xmlns:xlink="http://www.w3.org/1999/xlink" viewBox="0 0 56 75" version="1.1" x="0px" y="0px"><title>Group 174</title><desc>Created with Sketch.</desc><g stroke="none" stroke-width="1" fill="none" fill-rule="evenodd"><g transform="translate(-360.000000, -2447.000000)" fill="#000000"><g transform="translate(360.000000, 2447.000000)"><path d="M22.0178,20.0035 L6.0178,20.0035 C5.4658,20.0035 5.0178,19.5565 5.0178,19.0035 L5.0178,1.0035 C5.0178,0.4505 5.4658,0.0035 6.0178,0.0035 C6.5698,0.0035 7.0178,0.4505 7.0178,1.0035 L7.0178,18.0035 L21.0178,18.0035 L21.0178,1.0035 C21.0178,0.4505 21.4658,0.0035 22.0178,0.0035 C22.5698,0.0035 23.0178,0.4505 23.0178,1.0035 L23.0178,19.0035 C23.0178,19.5565 22.5698,20.0035 22.0178,20.0035"/><path d="M22.0178,60.0035 C21.4658,60.0035 21.0178,59.5565 21.0178,59.0035 L21.0178,40.0035 L7.0178,40.0035 L7.0178,59.0035 C7.0178,59.5565 6.5698,60.0035 6.0178,60.0035 C5.4658,60.0035 5.0178,59.5565 5.0178,59.0035 L5.0178,39.0035 C5.0178,38.4505 5.4658,38.0035 6.0178,38.0035 L22.0178,38.0035 C22.5698,38.0035 23.0178,38.4505 23.0178,39.0035 L23.0178,59.0035 C23.0178,59.5565 22.5698,60.0035 22.0178,60.0035"/><path d="M11.018,11.003 L17.018,11.003 L17.018,6.003 L11.018,6.003 L11.018,11.003 Z M18.018,13.003 L10.018,13.003 C9.466,13.003 9.018,12.556 9.018,12.003 L9.018,5.003 C9.018,4.451 9.466,4.003 10.018,4.003 L18.018,4.003 C18.57,4.003 19.018,4.451 19.018,5.003 L19.018,12.003 C19.018,12.556 18.57,13.003 18.018,13.003 L18.018,13.003 Z"/><path d="M43.0178,31.3853 L46.0178,32.8853 L49.0178,31.3853 L49.0178,28.6243 L45.9808,27.1213 L43.0178,28.6183 L43.0178,31.3853 Z M46.0178,35.0033 C45.8648,35.0033 45.7108,34.9683 45.5708,34.8983 L41.5708,32.8983 C41.2318,32.7283 41.0178,32.3823 41.0178,32.0033 L41.0178,28.0033 C41.0178,27.6263 41.2298,27.2813 41.5668,27.1113 L45.5258,25.1113 C45.8068,24.9703 46.1388,24.9663 46.4198,25.1073 L50.4608,27.1073 C50.8018,27.2763 51.0178,27.6233 51.0178,28.0033 L51.0178,32.0033 C51.0178,32.3823 50.8038,32.7283 50.4648,32.8983 L46.4648,34.8983 C46.3248,34.9683 46.1708,35.0033 46.0178,35.0033 L46.0178,35.0033 Z"/><path d="M43.018,11.003 L49.018,11.003 L49.018,6.003 L43.018,6.003 L43.018,11.003 Z M50.018,13.003 L42.018,13.003 C41.466,13.003 41.018,12.556 41.018,12.003 L41.018,5.003 C41.018,4.451 41.466,4.003 42.018,4.003 L50.018,4.003 C50.57,4.003 51.018,4.451 51.018,5.003 L51.018,12.003 C51.018,12.556 50.57,13.003 50.018,13.003 L50.018,13.003 Z"/><path d="M45.9768,25.0035 C46.1288,25.0035 46.2808,25.0375 46.4198,25.1075 L48.0528,25.9145 C48.2028,23.5055 48.8398,21.1225 49.9188,18.9635 C50.0688,18.6645 49.9488,18.4125 49.8908,18.3175 C49.8318,18.2235 49.6598,18.0035 49.3258,18.0035 L42.7098,18.0035 C42.3758,18.0035 42.2038,18.2235 42.1448,18.3175 C42.0868,18.4125 41.9668,18.6655 42.1158,18.9635 C43.1918,21.1155 43.8288,23.4895 43.9818,25.8915 L45.5258,25.1105 C45.6678,25.0395 45.8218,25.0035 45.9768,25.0035 M49.0178,28.5085 C48.8668,28.5085 48.7148,28.4745 48.5748,28.4045 L45.9818,27.1215 L43.4688,28.3915 C43.1588,28.5465 42.7888,28.5315 42.4938,28.3505 C42.1978,28.1685 42.0178,27.8465 42.0178,27.4985 L42.0178,27.0205 C42.0178,24.5475 41.4338,22.0705 40.3268,19.8575 C39.9118,19.0265 39.9548,18.0585 40.4438,17.2675 C40.9328,16.4765 41.7798,16.0035 42.7098,16.0035 L49.3258,16.0035 C50.2558,16.0035 51.1028,16.4765 51.5918,17.2675 C52.0808,18.0585 52.1238,19.0265 51.7078,19.8575 C50.6018,22.0705 50.0178,24.5475 50.0178,27.0205 L50.0178,27.5085 C50.0178,27.8545 49.8388,28.1755 49.5448,28.3575 C49.3848,28.4575 49.2018,28.5085 49.0178,28.5085"/><path d="M43.9421,34.0923 C43.7921,36.5013 43.1541,38.8833 42.0751,41.0433 C41.9251,41.3413 42.0461,41.5943 42.1041,41.6893 C42.1631,41.7833 42.3351,42.0033 42.6691,42.0033 L49.2851,42.0033 C49.6191,42.0033 49.7911,41.7833 49.8491,41.6893 C49.9081,41.5943 50.0271,41.3413 49.8781,41.0423 C48.8021,38.8913 48.1651,36.5173 48.0131,34.1153 L46.4691,34.8963 C46.1871,35.0373 45.8561,35.0393 45.5741,34.9003 L43.9421,34.0923 Z M49.2851,44.0033 L42.6691,44.0033 C41.7391,44.0033 40.8921,43.5303 40.4021,42.7393 C39.9141,41.9483 39.8701,40.9803 40.2861,40.1493 C41.3921,37.9363 41.9771,35.4593 41.9771,32.9873 L41.9771,32.4983 C41.9771,32.1533 42.1551,31.8313 42.4491,31.6493 C42.7431,31.4673 43.1101,31.4483 43.4201,31.6023 L46.0131,32.8853 L48.5251,31.6153 C48.8351,31.4593 49.2041,31.4733 49.5011,31.6563 C49.7961,31.8383 49.9771,32.1603 49.9771,32.5083 L49.9771,32.9873 C49.9771,35.4603 50.5611,37.9363 51.6671,40.1483 C52.0831,40.9803 52.0391,41.9483 51.5501,42.7393 C51.0621,43.5303 50.2141,44.0033 49.2851,44.0033 L49.2851,44.0033 Z"/><path d="M12.633,32.9625 L15.4,32.9625 L16.9,29.9625 L15.4,26.9625 L12.638,26.9625 L11.136,29.9985 L12.633,32.9625 Z M16.018,34.9625 L12.018,34.9625 C11.64,34.9625 11.295,34.7505 11.125,34.4135 L9.125,30.4545 C8.983,30.1735 8.982,29.8425 9.122,29.5605 L11.122,25.5195 C11.29,25.1785 11.637,24.9625 12.018,24.9625 L16.018,24.9625 C16.397,24.9625 16.743,25.1765 16.912,25.5155 L18.912,29.5155 C19.053,29.7965 19.053,30.1285 18.912,30.4095 L16.912,34.4095 C16.743,34.7485 16.397,34.9625 16.018,34.9625 L16.018,34.9625 Z"/><path d="M2.6824,25.9888 C2.5204,25.9888 2.3934,26.0518 2.3324,26.0898 C2.2384,26.1478 2.0174,26.3198 2.0174,26.6538 L2.0174,33.2708 C2.0174,33.6048 2.2384,33.7768 2.3324,33.8358 C2.4274,33.8928 2.6784,34.0148 2.9774,33.8638 C5.1304,32.7888 7.5044,32.1508 9.9054,31.9988 L9.1254,30.4548 C8.9834,30.1738 8.9824,29.8428 9.1214,29.5598 L9.9294,27.9278 C7.5194,27.7778 5.1374,27.1398 2.9784,26.0608 C2.8724,26.0088 2.7724,25.9888 2.6824,25.9888 M2.6804,35.9368 C2.1954,35.9368 1.7124,35.8018 1.2814,35.5368 C0.4904,35.0488 0.0174,34.2008 0.0174,33.2708 L0.0174,26.6538 C0.0174,25.7238 0.4904,24.8768 1.2814,24.3878 C2.0744,23.8998 3.0434,23.8568 3.8734,24.2718 C6.0854,25.3778 8.5614,25.9628 11.0344,25.9628 L11.5224,25.9628 C11.8684,25.9628 12.1894,26.1408 12.3724,26.4348 C12.5554,26.7288 12.5724,27.0958 12.4194,27.4058 L11.1364,29.9988 L12.4054,32.5108 C12.5614,32.8218 12.5464,33.1908 12.3644,33.4868 C12.1824,33.7818 11.8594,33.9628 11.5124,33.9628 L11.0344,33.9628 C8.5614,33.9628 6.0854,34.5478 3.8724,35.6528 C3.4944,35.8428 3.0864,35.9368 2.6804,35.9368"/><path d="M18.1067,32.0377 C20.5157,32.1877 22.8987,32.8257 25.0577,33.9047 C25.3547,34.0537 25.6087,33.9337 25.7037,33.8757 C25.7977,33.8167 26.0177,33.6447 26.0177,33.3107 L26.0177,26.6947 C26.0177,26.3607 25.7977,26.1887 25.7027,26.1307 C25.6077,26.0727 25.3567,25.9517 25.0577,26.1017 C22.9057,27.1777 20.5317,27.8147 18.1307,27.9677 L18.9107,29.5117 C19.0527,29.7927 19.0537,30.1237 18.9147,30.4057 L18.1067,32.0377 Z M25.3557,35.9767 C24.9497,35.9767 24.5427,35.8837 24.1637,35.6937 C21.9507,34.5887 19.4737,34.0037 17.0017,34.0037 L16.5127,34.0037 C16.1677,34.0037 15.8457,33.8247 15.6637,33.5307 C15.4807,33.2367 15.4627,32.8697 15.6167,32.5597 L16.8997,29.9677 L15.6307,27.4547 C15.4737,27.1437 15.4897,26.7747 15.6717,26.4787 C15.8537,26.1837 16.1757,26.0037 16.5237,26.0037 L17.0017,26.0037 C19.4737,26.0037 21.9507,25.4187 24.1627,24.3127 C24.9937,23.8977 25.9617,23.9407 26.7537,24.4297 C27.5447,24.9177 28.0177,25.7657 28.0177,26.6947 L28.0177,33.3107 C28.0177,34.2407 27.5457,35.0887 26.7547,35.5767 C26.3247,35.8437 25.8407,35.9767 25.3557,35.9767 L25.3557,35.9767 Z"/><path d="M22.0178,26.2427 L22.0278,26.2427 L22.0178,26.2427 Z M7.0178,38.0037 L21.0178,38.0037 L21.0178,34.5187 C19.6998,34.1767 18.3518,34.0037 17.0018,34.0037 L16.5128,34.0037 C16.1668,34.0037 15.8458,33.8247 15.6638,33.5307 C15.4808,33.2367 15.4628,32.8697 15.6168,32.5597 L16.8998,29.9677 L15.6308,27.4547 C15.4738,27.1437 15.4898,26.7747 15.6718,26.4787 C15.8528,26.1837 16.1758,26.0037 16.5228,26.0037 L17.0018,26.0037 C18.3518,26.0037 19.6998,25.8307 21.0178,25.4877 L21.0178,20.0037 L7.0178,20.0037 L7.0178,25.4467 C8.3358,25.7897 9.6838,25.9627 11.0338,25.9627 L11.5228,25.9627 C11.8688,25.9627 12.1898,26.1407 12.3728,26.4347 C12.5548,26.7287 12.5728,27.0967 12.4188,27.4057 L11.1358,29.9987 L12.4048,32.5117 C12.5618,32.8217 12.5458,33.1907 12.3638,33.4867 C12.1828,33.7817 11.8598,33.9627 11.5128,33.9627 L11.0338,33.9627 C9.6838,33.9627 8.3358,34.1357 7.0178,34.4777 L7.0178,38.0037 Z M22.0178,40.0037 L6.0178,40.0037 C5.4658,40.0037 5.0178,39.5557 5.0178,39.0037 L5.0178,33.7227 C5.0178,33.2847 5.3038,32.8967 5.7228,32.7677 C7.0908,32.3457 8.4928,32.0877 9.9048,31.9987 L9.1248,30.4547 C8.9828,30.1737 8.9818,29.8427 9.1218,29.5597 L9.9288,27.9287 C8.5088,27.8407 7.0988,27.5817 5.7228,27.1567 C5.3038,27.0277 5.0178,26.6397 5.0178,26.2017 L5.0178,19.0037 C5.0178,18.4507 5.4658,18.0037 6.0178,18.0037 L22.0178,18.0037 C22.5698,18.0037 23.0178,18.4507 23.0178,19.0037 L23.0178,26.2427 C23.0178,26.6807 22.7318,27.0687 22.3128,27.1977 C20.9448,27.6207 19.5428,27.8787 18.1308,27.9677 L18.9108,29.5117 C19.0528,29.7927 19.0538,30.1237 18.9138,30.4057 L18.1068,32.0377 C19.5268,32.1257 20.9368,32.3847 22.3128,32.8087 C22.7318,32.9377 23.0178,33.3257 23.0178,33.7637 L23.0178,39.0037 C23.0178,39.5557 22.5698,40.0037 22.0178,40.0037 L22.0178,40.0037 Z"/><path d="M53.9914,20.983 L50.5484,20.983 C50.2084,20.983 49.8914,20.81 49.7074,20.525 C49.5234,20.239 49.4974,19.879 49.6374,19.57 L49.6894,19.457 C49.7634,19.292 49.8384,19.127 49.9194,18.964 C50.0684,18.666 49.9494,18.413 49.8904,18.318 C49.8314,18.223 49.6594,18.004 49.3254,18.004 L42.7094,18.004 C42.3754,18.004 42.2034,18.223 42.1454,18.318 C42.0864,18.413 41.9674,18.666 42.1164,18.964 C42.1974,19.127 42.2714,19.292 42.3464,19.457 L42.3974,19.57 C42.5384,19.879 42.5124,20.239 42.3274,20.525 C42.1434,20.81 41.8264,20.983 41.4874,20.983 L37.9914,20.983 C37.7254,20.983 37.4714,20.878 37.2834,20.69 C37.0964,20.502 36.9914,20.247 36.9914,19.982 L37.0174,1.003 C37.0184,0.451 37.4664,0.004 38.0174,0.004 L38.0194,0.004 C38.5714,0.004 39.0184,0.453 39.0174,1.004 L38.9924,18.983 L40.0624,18.983 C39.9914,18.394 40.1194,17.792 40.4444,17.267 C40.9324,16.476 41.7804,16.004 42.7094,16.004 L49.3254,16.004 C50.2554,16.004 51.1024,16.476 51.5914,17.267 C51.9154,17.792 52.0444,18.394 51.9724,18.983 L52.9924,18.983 L53.0174,1.003 C53.0184,0.451 53.4664,0.004 54.0174,0.004 L54.0194,0.004 C54.5714,0.004 55.0184,0.453 55.0174,1.004 L54.9914,19.984 C54.9904,20.536 54.5434,20.983 53.9914,20.983"/><path d="M51.1477,38.983 L52.9917,38.983 L52.9917,20.983 L51.2057,20.983 C50.4177,22.913 50.0177,24.94 50.0177,27.02 L50.0177,27.508 C50.0177,27.854 49.8387,28.175 49.5447,28.358 C49.2517,28.54 48.8847,28.558 48.5747,28.405 L45.9817,27.122 L43.4687,28.391 C43.1587,28.546 42.7887,28.532 42.4937,28.35 C42.1977,28.169 42.0177,27.846 42.0177,27.499 L42.0177,27.02 C42.0177,24.94 41.6187,22.913 40.8297,20.983 L38.9917,20.983 L38.9917,38.983 L40.8057,38.983 C41.5837,37.065 41.9767,35.051 41.9767,32.987 L41.9767,32.499 C41.9767,32.153 42.1557,31.832 42.4497,31.649 C42.7427,31.467 43.1097,31.449 43.4197,31.602 L46.0127,32.885 L48.5257,31.616 C48.8347,31.46 49.2047,31.473 49.5007,31.657 C49.7967,31.838 49.9767,32.161 49.9767,32.508 L49.9767,32.987 C49.9767,35.051 50.3707,37.065 51.1477,38.983 M53.9917,40.983 L50.4887,40.983 C50.0957,40.983 49.7387,40.753 49.5767,40.394 C48.6717,38.388 48.1477,36.282 48.0117,34.117 L46.4687,34.896 C46.1877,35.038 45.8557,35.04 45.5747,34.9 L43.9427,34.092 C43.8107,36.266 43.2847,38.381 42.3767,40.394 C42.2147,40.753 41.8577,40.983 41.4647,40.983 L37.9917,40.983 C37.4397,40.983 36.9917,40.536 36.9917,39.983 L36.9917,19.983 C36.9917,19.43 37.4397,18.983 37.9917,18.983 L41.4867,18.983 C41.8787,18.983 42.2347,19.212 42.3977,19.569 C43.3147,21.587 43.8467,23.709 43.9827,25.89 L45.5257,25.111 C45.8077,24.97 46.1387,24.966 46.4197,25.107 L48.0517,25.915 C48.1857,23.724 48.7177,21.594 49.6387,19.569 C49.8007,19.212 50.1567,18.983 50.5487,18.983 L53.9917,18.983 C54.5437,18.983 54.9917,19.43 54.9917,19.983 L54.9917,39.983 C54.9917,40.536 54.5437,40.983 53.9917,40.983"/><path d="M54.0178,60.0035 C53.4658,60.0035 53.0188,59.5565 53.0178,59.0045 L52.9928,40.9825 L51.9268,40.9825 C52.0088,41.5855 51.8818,42.2035 51.5508,42.7395 C51.0618,43.5305 50.2148,44.0035 49.2848,44.0035 L42.6688,44.0035 C41.7388,44.0035 40.8918,43.5305 40.4028,42.7395 C40.0718,42.2035 39.9448,41.5855 40.0268,40.9825 L38.9928,40.9825 L39.0178,59.0025 C39.0188,59.5545 38.5718,60.0025 38.0188,60.0035 L38.0178,60.0035 C37.4658,60.0035 37.0188,59.5565 37.0178,59.0045 L36.9918,39.9835 C36.9908,39.7195 37.0968,39.4645 37.2838,39.2755 C37.4718,39.0885 37.7258,38.9825 37.9918,38.9825 L41.4648,38.9825 C41.8048,38.9825 42.1218,39.1555 42.3058,39.4415 C42.4898,39.7265 42.5168,40.0855 42.3758,40.3955 L42.3308,40.4965 C42.2478,40.6795 42.1648,40.8625 42.0758,41.0425 C41.9258,41.3415 42.0458,41.5945 42.1038,41.6895 C42.1628,41.7835 42.3348,42.0035 42.6688,42.0035 L49.2848,42.0035 C49.6188,42.0035 49.7908,41.7835 49.8498,41.6895 C49.9078,41.5945 50.0278,41.3415 49.8778,41.0425 C49.7888,40.8625 49.7058,40.6795 49.6228,40.4965 L49.5778,40.3955 C49.4368,40.0855 49.4638,39.7265 49.6478,39.4415 C49.8318,39.1555 50.1488,38.9825 50.4888,38.9825 L53.9918,38.9825 C54.5428,38.9825 54.9908,39.4305 54.9918,39.9825 L55.0178,59.0025 C55.0188,59.5545 54.5718,60.0025 54.0188,60.0035 L54.0178,60.0035 Z"/></g></g></g><text x="0" y="75" fill="#000000" font-size="5px" font-weight="bold" font-family="'Helvetica Neue', Helvetica, Arial-Unicode, Arial, Sans-serif">Created by Ben Davis</text><text x="0" y="80" fill="#000000" font-size="5px" font-weight="bold" font-family="'Helvetica Neue', Helvetica, Arial-Unicode, Arial, Sans-serif">from the Noun Project</text></svg>