<svg xmlns="http://www.w3.org/2000/svg" xmlns:xlink="http://www.w3.org/1999/xlink" version="1.1" x="0px" y="0px" viewBox="0 0 60 75" style="enable-background:new 0 0 60 60;" xml:space="preserve"><path d="M54.8,6.5c-0.1-0.1-0.1-0.2-0.2-0.2c0,0,0,0,0,0c0,0-0.1,0-0.1,0c-0.1,0-0.2-0.1-0.2-0.1c-0.1,0-0.1,0-0.2,0  c0,0-0.1,0-0.1,0H6c0,0-0.1,0-0.1,0c-0.1,0-0.1,0-0.2,0c-0.1,0-0.2,0.1-0.2,0.1c0,0-0.1,0-0.1,0c0,0,0,0,0,0  C5.3,6.3,5.2,6.4,5.2,6.5c0,0-0.1,0.1-0.1,0.1C5,6.7,5,6.9,5,7v46c0,0.1,0,0.3,0.1,0.4c0,0,0,0.1,0.1,0.1c0.1,0.1,0.1,0.2,0.2,0.2  c0,0,0,0,0,0c0,0,0.1,0.1,0.1,0.1c0,0,0.1,0,0.1,0.1C5.8,54,5.9,54,6,54h48c0.1,0,0.2,0,0.4-0.1c0,0,0.1,0,0.1-0.1  c0,0,0.1,0,0.1-0.1c0,0,0,0,0,0c0.1-0.1,0.1-0.1,0.2-0.2c0,0,0.1-0.1,0.1-0.1C55,53.3,55,53.1,55,53V7c0-0.1,0-0.3-0.1-0.4  C54.9,6.5,54.9,6.5,54.8,6.5z M15,10.4V29H7V8.3L15,10.4z M23,29h-6V10.9l6,1.6V29z M23,31v16.6l-6,1.6V31H23z M15,31v18.6l-8,2.1  V31H15z M24.3,49.3c0.4-0.1,0.7-0.5,0.7-1V11.7c0-0.5-0.3-0.9-0.7-1L13.8,8h32.3l-10.4,2.7c-0.4,0.1-0.7,0.5-0.7,1v36.7  c0,0.5,0.3,0.9,0.7,1L46.2,52H13.8L24.3,49.3z M37,47.6V31h6v18.1L37,47.6z M37,29V12.4l6-1.6V29H37z M45,10.4l8-2.1V29h-8V10.4z   M45,49.6V31h8v20.7L45,49.6z"/><text x="0" y="75" fill="#000000" font-size="5px" font-weight="bold" font-family="'Helvetica Neue', Helvetica, Arial-Unicode, Arial, Sans-serif">Created by Vectorstall</text><text x="0" y="80" fill="#000000" font-size="5px" font-weight="bold" font-family="'Helvetica Neue', Helvetica, Arial-Unicode, Arial, Sans-serif">from the Noun Project</text></svg>