<svg xmlns="http://www.w3.org/2000/svg" viewBox="0 0 24 30" x="0px" y="0px"><title>star</title><path d="M5.37,23.5a1.28,1.28,0,0,1-1.24-1.56l1.54-6.8L.44,10.55a1.28,1.28,0,0,1,.72-2.23l6.93-.63,2.74-6.41a1.28,1.28,0,0,1,2.35,0l2.74,6.41,6.93.63a1.28,1.28,0,0,1,.72,2.23l-5.24,4.59,1.54,6.8A1.28,1.28,0,0,1,18,23.32l-6-3.57L6,23.32A1.27,1.27,0,0,1,5.37,23.5ZM12,18.21a1.28,1.28,0,0,1,.65.18l5.64,3.37-1.46-6.42a1.27,1.27,0,0,1,.4-1.24l4.94-4.34-6.54-.59a1.27,1.27,0,0,1-1.06-.77L12,2.35,9.42,8.4a1.27,1.27,0,0,1-1.06.77l-6.54.59L6.76,14.1a1.27,1.27,0,0,1,.4,1.24L5.71,21.76l5.64-3.37h0A1.28,1.28,0,0,1,12,18.21ZM8,7.81H8Zm7.93,0h0Z"/><text x="0" y="39" fill="#000000" font-size="5px" font-weight="bold" font-family="'Helvetica Neue', Helvetica, Arial-Unicode, Arial, Sans-serif">Created by Sudarto Wasmad</text><text x="0" y="44" fill="#000000" font-size="5px" font-weight="bold" font-family="'Helvetica Neue', Helvetica, Arial-Unicode, Arial, Sans-serif">from the Noun Project</text></svg>