<svg xmlns="http://www.w3.org/2000/svg" xmlns:xlink="http://www.w3.org/1999/xlink" version="1.1" x="0px" y="0px" viewBox="0 0 100 125" enable-background="new 0 0 100 100" xml:space="preserve"><path d="M54.091,8c0.602,0,1.091,0.489,1.091,1.091v9.213c0,1.369,0.927,2.564,2.252,2.905c2.672,0.688,5.25,1.759,7.662,3.184  c0.475,0.28,1.001,0.417,1.524,0.417c0.776,0,1.544-0.301,2.122-0.879l6.521-6.521c0.278-0.278,0.603-0.319,0.771-0.319  c0.169,0,0.493,0.042,0.771,0.319l5.786,5.787c0.277,0.277,0.319,0.602,0.319,0.77c0,0.169-0.042,0.493-0.319,0.771l-6.521,6.521  c-0.969,0.968-1.158,2.469-0.462,3.647c1.425,2.411,2.496,4.988,3.184,7.66c0.341,1.326,1.536,2.252,2.905,2.252h9.211  c0.602,0,1.092,0.49,1.092,1.091l-0.001,8.183c0,0.394-0.199,0.651-0.318,0.771s-0.378,0.319-0.771,0.319h-9.212  c-1.369,0-2.564,0.927-2.905,2.253c-0.688,2.672-1.759,5.249-3.183,7.659c-0.697,1.179-0.508,2.68,0.461,3.647l6.521,6.521  c0.426,0.425,0.426,1.118,0.001,1.543l-5.787,5.785c-0.277,0.278-0.602,0.319-0.77,0.319c-0.169,0-0.493-0.041-0.771-0.319  l-6.521-6.521c-0.578-0.578-1.346-0.879-2.122-0.879c-0.523,0-1.051,0.137-1.525,0.417c-2.411,1.425-4.988,2.496-7.66,3.184  c-1.326,0.341-2.253,1.536-2.253,2.905v9.213c0,0.602-0.489,1.091-1.091,1.091H45.91c-0.602,0-1.091-0.489-1.091-1.091v-9.213  c0-1.369-0.927-2.564-2.252-2.905c-2.671-0.688-5.249-1.759-7.659-3.184c-0.475-0.28-1.002-0.417-1.525-0.417  c-0.776,0-1.544,0.301-2.123,0.879l-6.521,6.521c-0.278,0.278-0.603,0.319-0.771,0.319s-0.494-0.041-0.771-0.318l-5.785-5.786  c-0.278-0.277-0.32-0.603-0.32-0.771c0-0.169,0.042-0.493,0.32-0.771l6.522-6.522c0.968-0.968,1.158-2.469,0.461-3.647  c-1.424-2.41-2.495-4.987-3.183-7.659c-0.341-1.326-1.536-2.253-2.905-2.253H9.091C8.489,55.182,8,54.692,8,54.091V45.91  c0-0.602,0.49-1.091,1.091-1.091h9.214c1.369,0,2.564-0.927,2.905-2.252c0.688-2.671,1.758-5.248,3.183-7.66  c0.696-1.179,0.506-2.679-0.461-3.647l-6.522-6.521c-0.278-0.278-0.319-0.603-0.319-0.772c0-0.168,0.042-0.493,0.32-0.771  l5.784-5.785c0.278-0.278,0.603-0.32,0.772-0.32c0.168,0,0.493,0.042,0.771,0.32l6.521,6.521c0.579,0.578,1.347,0.879,2.123,0.879  c0.523,0,1.05-0.137,1.525-0.417c2.41-1.424,4.987-2.495,7.66-3.183c1.325-0.341,2.252-1.537,2.252-2.905V9.091  C44.818,8.489,45.308,8,45.91,8H54.091 M50.002,69.363c10.677,0,19.363-8.687,19.363-19.363c0-10.677-8.687-19.364-19.363-19.364  c-10.678,0-19.366,8.687-19.366,19.364C30.636,60.677,39.324,69.363,50.002,69.363 M54.091,5H45.91  c-2.259,0-4.091,1.832-4.091,4.091v9.213c-3.002,0.773-5.834,1.967-8.438,3.505l-6.522-6.522c-0.799-0.799-1.846-1.198-2.893-1.198  s-2.094,0.399-2.893,1.198l-5.785,5.785c-1.598,1.597-1.598,4.188,0,5.786l6.522,6.522c-1.539,2.604-2.733,5.436-3.505,8.438H9.091  C6.832,41.819,5,43.65,5,45.91v8.181c0,2.26,1.832,4.091,4.091,4.091h9.214c0.772,3.003,1.967,5.835,3.505,8.438l-6.522,6.522  c-1.598,1.598-1.598,4.188,0,5.785l5.785,5.785c0.799,0.799,1.846,1.197,2.893,1.197s2.094-0.398,2.893-1.197l6.522-6.522  c2.604,1.539,5.436,2.733,8.438,3.506v9.213c0,2.26,1.832,4.091,4.091,4.091h8.181c2.26,0,4.091-1.831,4.091-4.091v-9.213  c3.003-0.772,5.835-1.967,8.439-3.506l6.521,6.521c0.799,0.799,1.846,1.198,2.893,1.198s2.094-0.399,2.892-1.198l5.786-5.785  c1.597-1.598,1.597-4.188,0-5.785l-6.521-6.521c1.539-2.604,2.733-5.436,3.506-8.438h9.212c2.26,0,4.091-1.831,4.09-4.091L95,45.91  c-0.001-2.259-1.831-4.091-4.091-4.091h-9.212c-0.772-3.002-1.967-5.834-3.506-8.438l6.521-6.521  c1.598-1.598,1.598-4.188-0.001-5.785l-5.785-5.786c-0.799-0.799-1.846-1.198-2.893-1.198c-1.046,0-2.093,0.399-2.892,1.198  l-6.521,6.521c-2.604-1.539-5.437-2.733-8.439-3.506V9.091C58.182,6.832,56.351,5,54.091,5L54.091,5z M50.002,66.363  c-9.039,0-16.366-7.325-16.366-16.363c0-9.037,7.327-16.364,16.366-16.364c9.037,0,16.363,7.327,16.363,16.364  C66.365,59.038,59.039,66.363,50.002,66.363L50.002,66.363z"/><text x="0" y="115" fill="#000000" font-size="5px" font-weight="bold" font-family="'Helvetica Neue', Helvetica, Arial-Unicode, Arial, Sans-serif">Created by José Campos</text><text x="0" y="120" fill="#000000" font-size="5px" font-weight="bold" font-family="'Helvetica Neue', Helvetica, Arial-Unicode, Arial, Sans-serif">from the Noun Project</text></svg>