<svg xmlns:dc="http://purl.org/dc/elements/1.1/" xmlns:cc="http://creativecommons.org/ns#" xmlns:rdf="http://www.w3.org/1999/02/22-rdf-syntax-ns#" xmlns:svg="http://www.w3.org/2000/svg" xmlns="http://www.w3.org/2000/svg" xmlns:sodipodi="http://sodipodi.sourceforge.net/DTD/sodipodi-0.dtd" xmlns:inkscape="http://www.inkscape.org/namespaces/inkscape" version="1.1" x="0px" y="0px" viewBox="0 0 100 125"><g transform="translate(0,-952.36218)"><path style="text-indent:0;text-transform:none;direction:ltr;block-progression:tb;baseline-shift:baseline;color:#000000;enable-background:accumulate;" d="m 50,951.36215 c -1.6568,0 -3,1.3432 -3,3 l 0,8 c 0,1.6569 1.3432,3 3,3 1.6569,0 3,-1.3431 3,-3 l 0,-8 c 0,-1.6568 -1.3431,-3 -3,-3 z M 21.7188,963.0809 c -0.7679,0 -1.5392,0.2892 -2.125,0.875 -1.1715,1.1715 -1.1715,3.0786 0,4.25 l 5.6562,5.65625 c 1.1716,1.1716 3.0785,1.1715 4.25,0 1.1716,-1.1716 1.1716,-3.0784 0,-4.25 l -5.6562,-5.65625 c -0.5859,-0.5858 -1.3573,-0.875 -2.125,-0.875 z m 56.5624,0 c -0.7677,0 -1.5391,0.2892 -2.125,0.875 L 70.5,969.61215 c -1.1716,1.1716 -1.1716,3.0784 0,4.25 1.1715,1.1715 3.0784,1.1716 4.25,0 l 5.6562,-5.65625 c 1.1715,-1.1714 1.1715,-3.0785 0,-4.25 -0.5858,-0.5858 -1.3571,-0.875 -2.125,-0.875 z M 50,969.36215 c -13.7469,0 -27,10.69721 -27,25.84375 0,9.4306 3.7355,15.542 7.0625,20.25 3.327,4.7081 5.9375,7.8975 5.9375,12.9063 l 0,12 c 0,3.9425 3.2767,7 7,7 l 0.094,0 c 0.4928,3.3656 3.4178,6 6.9062,6 3.4884,0 6.4134,-2.6344 6.9062,-6 l 0.094,0 c 3.7233,0 7,-3.0575 7,-7 l 0,-12 c 0,-5.0088 2.6105,-8.1982 5.9375,-12.9063 3.327,-4.708 7.0625,-10.8194 7.0625,-20.25 C 77,980.05936 63.7469,969.36215 50,969.36215 z m 0,6 c 10.6435,0 21,8.22569 21,19.84375 0,7.9333 -2.7645,12.2912 -5.9375,16.7813 -2.7053,3.8283 -5.9202,7.8467 -6.8125,13.375 l -16.5,0 c -0.8923,-5.5283 -4.1072,-9.5467 -6.8125,-13.375 C 31.7645,1007.4971 29,1003.1392 29,995.2059 29,983.58784 39.3565,975.36215 50,975.36215 z m -4.7188,3 c -0.4269,-0.0154 -0.8833,0.0424 -1.3437,0.15625 -6.5086,2.45427 -11.381,8.1868 -12.625,15.1875 -0.2702,1.55454 0.883,3.22999 2.4375,3.5 1.5546,0.27001 3.2302,-0.91412 3.5,-2.46875 0.8714,-4.9043 4.2667,-8.91087 8.8125,-10.625 1.3034,-0.48459 2.1492,-1.97455 1.9063,-3.34375 -0.3606,-1.67919 -1.4068,-2.36015 -2.6876,-2.40625 z m -35.2812,13 c -1.6568,0 -3,1.3431 -3,3 0,1.6568 1.3432,3 3,3 l 8,0 c 1.6569,0 3,-1.3432 3,-3 0,-1.6569 -1.3431,-3 -3,-3 l -8,0 z m 72,0 c -1.6569,0 -3,1.3432 -3,3 0,1.6569 1.3431,3 3,3 l 8,0 c 1.6568,0 3,-1.3431 3,-3 0,-1.6568 -1.3432,-3 -3,-3 l -8,0 z m -40,40.00005 16,0 0,2 -16,0 0,-2 z m 0,8 16,0 0,1 c 0,0.6537 -0.5023,1 -1,1 l -14,0 c -0.4977,0 -1,-0.3463 -1,-1 l 0,-1 z" fill="#000000" fill-opacity="1" stroke="none" marker="none" visibility="visible" display="inline" overflow="visible"/></g><text x="0" y="115" fill="#000000" font-size="5px" font-weight="bold" font-family="'Helvetica Neue', Helvetica, Arial-Unicode, Arial, Sans-serif">Created by Numero Uno</text><text x="0" y="120" fill="#000000" font-size="5px" font-weight="bold" font-family="'Helvetica Neue', Helvetica, Arial-Unicode, Arial, Sans-serif">from the Noun Project</text></svg>