<svg xmlns="http://www.w3.org/2000/svg" data-name="Layer 1" viewBox="0 0 100 125" x="0px" y="0px"><title>18</title><g data-name="Group"><path data-name="Path" d="M39.9,34.3H36.4a2,2,0,0,0,0,4h3.5a2,2,0,0,0,0-4Z"/><path data-name="Path" d="M25.9,34.3H22.4a2,2,0,0,0,0,4h3.5a2,2,0,0,0,0-4Z"/><path data-name="Path" d="M50.4,38.3h3.5a2,2,0,0,0,0-4H50.4a2,2,0,1,0,0,4Z"/><path data-name="Path" d="M64.4,38.3h3.5a2,2,0,0,0,0-4H64.4a2,2,0,1,0,0,4Z"/><path data-name="Path" d="M39.9,46H36.4a2,2,0,0,0,0,4h3.5a2,2,0,0,0,0-4Z"/><path data-name="Path" d="M25.9,46H22.4a2,2,0,0,0,0,4h3.5a2,2,0,0,0,0-4Z"/><path data-name="Path" d="M39.9,57.6H36.4a2,2,0,0,0,0,4h3.5a2,2,0,0,0,0-4Z"/><path data-name="Path" d="M25.9,57.6H22.4a2,2,0,0,0,0,4h3.5a2,2,0,0,0,0-4Z"/><path data-name="Compound Path" d="M83.5,47V25.4a10,10,0,0,0-10-10h-.7V11.4a2,2,0,1,0-4,0v3.9H60V11.4a2,2,0,0,0-4,0v3.9H47.2V11.4a2,2,0,0,0-4,0v3.9H34.3V11.4a2,2,0,1,0-4,0v3.9H21.5V11.4a2,2,0,0,0-4,0v3.9h-.7a10,10,0,0,0-10,10V65.7a10,10,0,0,0,10,10H46.6A24.2,24.2,0,1,0,83.5,47ZM16.8,71.7a6,6,0,0,1-6-6V25.4a6,6,0,0,1,6-6h.7v2.9a2,2,0,1,0,4,0V19.4h8.8v2.9a2,2,0,0,0,4,0V19.4h8.8v2.9a2,2,0,1,0,4,0V19.4H56v2.9a2,2,0,1,0,4,0V19.4h8.8v2.9a2,2,0,0,0,4,0V19.4h.7a6,6,0,0,1,6,6V44.5a24.2,24.2,0,0,0-24.4,1.9,2,2,0,0,0-1.2-.4H50.4a2,2,0,1,0,0,4h.6a24.2,24.2,0,0,0-5.8,21.7ZM68.9,86.6A20.2,20.2,0,1,1,89.2,66.3,20.3,20.3,0,0,1,68.9,86.6Z"/><path data-name="Path" d="M77.1,66.1H69.8V55.8a2,2,0,1,0-4,0V68.1a2,2,0,0,0,2,2h9.4a2,2,0,0,0,0-4Z"/></g><text x="0" y="115" fill="#000000" font-size="5px" font-weight="bold" font-family="'Helvetica Neue', Helvetica, Arial-Unicode, Arial, Sans-serif">Created by Pavitra</text><text x="0" y="120" fill="#000000" font-size="5px" font-weight="bold" font-family="'Helvetica Neue', Helvetica, Arial-Unicode, Arial, Sans-serif">from the Noun Project</text></svg>