<svg xmlns="http://www.w3.org/2000/svg" xmlns:xlink="http://www.w3.org/1999/xlink" version="1.1" x="0px" y="0px" viewBox="0 0 100 125" style="enable-background:new 0 0 100 100;" xml:space="preserve"><g><path d="M94.5,61.7c-0.5-0.7-1.3-1-2.1-0.8c-13.9,3.2-28.3-2.3-36.6-13.8c-8.3-11.6-9-26.9-1.6-39.1c0.4-0.7,0.4-1.6-0.1-2.2   c-0.5-0.6-1.3-1-2.1-0.8c-5.2,1.2-10,3.3-14.3,6.5c-15.7,11.3-20.6,32-12.6,48.9c-0.1,0.1-0.1,0.2-0.2,0.3   c-1.2-0.6-2.6-0.9-3.9-0.9c-0.1,0-0.2,0-0.3,0c-0.1,0-0.2,0-0.3,0c-4.6,0-8.4,3.4-9.1,7.8c-3.6,1.3-6.2,4.7-6.2,8.7   c0,3.7,2.2,7,5.4,8.4c1.5,4.5,5.7,7.5,10.5,7.5c1.3,0,2.6-0.2,3.8-0.7c2.1,2.4,5.1,3.7,8.3,3.7c3.2,0,6.3-1.5,8.4-3.9   c1.4,0.6,2.8,0.9,4.3,0.9c4.9,0,9.2-3.2,10.6-7.8c0.7-0.4,1.4-0.9,1.9-1.5c0.9,0,1.7,0.1,2.6,0.1c8.2,0,16.2-2.6,23-7.5   c4.3-3.1,7.9-7,10.7-11.5C95,63.2,95,62.3,94.5,61.7z M53.9,81c-0.6,0.3-1,0.8-1.2,1.4c-0.7,3.3-3.6,5.6-6.9,5.6   c-1.4,0-2.7-0.4-3.8-1.1c-0.5-0.3-1-0.4-1.5-0.3c-0.5,0.1-1,0.5-1.3,0.9c-1.3,2.2-3.6,3.5-6.1,3.5c-2.4,0-4.7-1.2-6-3.3   c-0.4-0.6-1-0.9-1.7-0.9c-0.3,0-0.7,0.1-1,0.2c-1.1,0.6-2.3,0.9-3.5,0.9c-3.3,0-6.1-2.2-6.9-5.4c-0.2-0.7-0.7-1.2-1.3-1.4   c-2.2-0.7-3.7-2.7-3.7-5c0-2.6,1.8-4.8,4.4-5.2c1-0.2,1.7-1,1.7-2v-0.1c0-2.9,2.4-5.3,5.3-5.3c0,0,0,0,0,0l0.2,0c0,0,0.1,0,0.1,0   l0.2,0c1.2,0,2.4,0.4,3.4,1.2c0.5,0.4,1.2,0.6,1.8,0.4c0.6-0.2,1.1-0.6,1.4-1.2c0.8-2.1,2.7-3.4,5-3.4c0,0,0,0,0,0l0.1,0h0.2l0.2,0   c2.3,0,4.4,1.5,5,3.7c0.2,0.7,0.8,1.2,1.4,1.4s1.4,0,1.9-0.5c1-1,2.4-1.6,3.8-1.5l0.2,0c0,0,0.1,0,0.1,0l0.2,0   c2.9,0,5.2,2.4,5.3,5.2c0,0.1,0,0.2,0,0.2c0,1,0.7,1.8,1.7,2c2.5,0.4,4.4,2.6,4.4,5.2C57.1,78.3,55.9,80.2,53.9,81z M81.6,72.2   c-6.2,4.4-13.4,6.7-20.9,6.7c0.3-0.9,0.4-1.8,0.4-2.7c0-4-2.5-7.4-6.2-8.7c-0.7-4.4-4.5-7.8-9.1-7.8c-0.1,0-0.2,0-0.3,0   c-0.1,0-0.2,0-0.3,0c-1.6,0-3.1,0.4-4.4,1.1c-1.7-2.5-4.6-4.1-7.7-4.1c-0.1,0-0.2,0-0.3,0c-0.1,0-0.2,0-0.3,0c-1.5,0-2.9,0.4-4.2,1   c-6.6-15-2-33.1,11.7-43c2.6-1.9,5.5-3.4,8.5-4.5c-5.7,12.8-4.3,27.7,4,39.2C60.9,61,74.6,67,88.5,65.6   C86.5,68.1,84.2,70.3,81.6,72.2z"/><path d="M79.1,16.9h5.7l-7.3,8.7c-0.5,0.6-0.6,1.4-0.3,2.1c0.3,0.7,1,1.2,1.8,1.2h10c1.1,0,2-0.9,2-2s-0.9-2-2-2h-5.7l7.3-8.7   c0.5-0.6,0.6-1.4,0.3-2.1c-0.3-0.7-1-1.2-1.8-1.2h-10c-1.1,0-2,0.9-2,2S78,16.9,79.1,16.9z"/><path d="M71.1,38.9h2l-3.6,4.8c-0.5,0.6-0.5,1.4-0.2,2.1c0.3,0.7,1,1.1,1.8,1.1h6c1.1,0,2-0.9,2-2s-0.9-2-2-2h-2l3.6-4.8   c0.5-0.6,0.5-1.4,0.2-2.1c-0.3-0.7-1-1.1-1.8-1.1h-6c-1.1,0-2,0.9-2,2S70,38.9,71.1,38.9z"/></g><text x="0" y="115" fill="#000000" font-size="5px" font-weight="bold" font-family="'Helvetica Neue', Helvetica, Arial-Unicode, Arial, Sans-serif">Created by Loritas Medina</text><text x="0" y="120" fill="#000000" font-size="5px" font-weight="bold" font-family="'Helvetica Neue', Helvetica, Arial-Unicode, Arial, Sans-serif">from the Noun Project</text></svg>