<svg xmlns="http://www.w3.org/2000/svg" xmlns:xlink="http://www.w3.org/1999/xlink" version="1.1" x="0px" y="0px" viewBox="0 0 1024 1280" style="enable-background:new 0 0 1024 1024;" xml:space="preserve"><g><g><g><path d="M950.2,218.2c-16.3,0-32.5,0-48.8,0c-35.6,0-71.2,0-106.7,0c-35.1,0-70.1,0-105.2,0     c-11.1,0-22.3,0-33.4,0c-14.3,0-27.3,0.3-38.9,11.4c-15,14.2-12.2,35.6-12.2,54.2c0,18.4,0,36.8,0,55.2c0,11.5-0.4,23.1,0.2,34.6     c1.6,31.4,10.3,62.1,26.3,89.2c15.5,26.3,37.3,48.5,63,65.1c26.4,17.1,56.7,26.3,87.9,29.3c59.1,5.7,121.5-19.7,160.1-64.9     c20-23.4,35.2-50.8,42.4-80.9c4.4-18.4,5.6-37.1,5.6-56c0-31.4,0-62.8,0-94.2c0-0.9,0-1.8,0-2.7c-0.4-9.2-3-17.2-8.7-24.5     c-3.3-4.3-6.5-7.8-11.6-10.4C963.6,220,957.5,219,950.2,218.2c-8.3-1-19.1,4.6-24.7,10.3c-6.1,6.1-10.6,16-10.3,24.7     c0.4,9.1,3.4,18.4,10.3,24.7c7.3,6.7,15,9.1,24.7,10.3c0.4,0,0.8,0.1,1.2,0.1c-3.1-0.4-6.2-0.8-9.3-1.3c0.4,0.1,0.7,0.3,1.1,0.4     c-2.8-1.2-5.6-2.4-8.4-3.5c0.3,0.2,0.6,0.4,1,0.6c-2.4-1.8-4.7-3.6-7.1-5.5c0.3,0.3,0.5,0.5,0.8,0.8c-1.8-2.4-3.6-4.7-5.5-7.1     c0.2,0.3,0.4,0.6,0.6,1c-1.2-2.8-2.4-5.6-3.5-8.4c0.1,0.4,0.3,0.7,0.4,1.1c-0.4-3.1-0.8-6.2-1.3-9.3c0.5,4.3,0.1,8.8,0.1,13.1     c0,9.7,0,19.4,0,29.1c0,19.8,0,39.5,0,59.3c0,9.1-0.2,18.2-1.4,27.2c0.4-3.1,0.8-6.2,1.3-9.3c-1.9,13.9-5.5,27.3-10.9,40.3     c1.2-2.8,2.4-5.6,3.5-8.4c-5.4,12.6-12.2,24.4-20.5,35.2c1.8-2.4,3.6-4.7,5.5-7.1c-8.3,10.7-17.9,20.3-28.6,28.6     c2.4-1.8,4.7-3.6,7.1-5.5c-10.9,8.3-22.6,15.2-35.2,20.5c2.8-1.2,5.6-2.4,8.4-3.5c-12.9,5.4-26.4,9-40.3,10.9     c3.1-0.4,6.2-0.8,9.3-1.3c-13.9,1.8-27.8,1.8-41.7,0c3.1,0.4,6.2,0.8,9.3,1.3c-13.9-1.9-27.3-5.5-40.3-10.9     c2.8,1.2,5.6,2.4,8.4,3.5c-12.6-5.4-24.4-12.2-35.2-20.5c2.4,1.8,4.7,3.6,7.1,5.5c-10.7-8.3-20.3-17.9-28.6-28.6     c1.8,2.4,3.6,4.7,5.5,7.1c-8.3-10.9-15.2-22.6-20.5-35.2c1.2,2.8,2.4,5.6,3.5,8.4c-5.4-12.9-9-26.4-10.9-40.3     c0.4,3.1,0.8,6.2,1.3,9.3c-2.1-16.1-1.4-32.6-1.4-48.8c0-21.2,0-42.5,0-63.7c0-5.3-0.5-10.9,0.1-16.2c-0.4,3.1-0.8,6.2-1.3,9.3     c0.1-0.4,0.3-0.7,0.4-1.1c-1.2,2.8-2.4,5.6-3.5,8.4c0.2-0.3,0.4-0.6,0.6-1c-1.8,2.4-3.6,4.7-5.5,7.1c0.3-0.3,0.5-0.5,0.8-0.8     c-2.4,1.8-4.7,3.6-7.1,5.5c0.3-0.2,0.6-0.4,1-0.6c-2.8,1.2-5.6,2.4-8.4,3.5c0.4-0.1,0.7-0.3,1.1-0.4c-3.1,0.4-6.2,0.8-9.3,1.3     c10.2-1.2,21-0.1,31.3-0.1c24.1,0,48.2,0,72.3,0c54.9,0,109.8,0,164.7,0c12.7,0,25.3,0,38,0c18.3,0,35.8-16.1,35-35     C984.3,234.2,969.8,218.2,950.2,218.2z"/></g></g><g><g><path d="M678.4,113.8c0,40.7,0,81.5,0,122.2c0,5.7,0,11.4,0,17.1c0,18.3,16.1,35.8,35,35c19-0.8,35-15.4,35-35     c0-40.7,0-81.5,0-122.2c0-5.7,0-11.4,0-17.1c0-18.3-16.1-35.8-35-35C694.5,79.7,678.4,94.2,678.4,113.8L678.4,113.8z"/></g></g><g><g><path d="M916.9,253.2c0-40.7,0-81.5,0-122.2c0-5.7,0-11.4,0-17.1c0-18.3-16.1-35.8-35-35c-19,0.8-35,15.4-35,35     c0,40.7,0,81.5,0,122.2c0,5.7,0,11.4,0,17.1c0,18.3,16.1,35.8,35,35C900.8,287.3,916.9,272.8,916.9,253.2L916.9,253.2z"/></g></g><g><g><path d="M416.3,566.2c9.9-5.9,19.1-13.5,27.8-21c17.7-15.3,33.1-33.7,45.8-53.4c16.8-26.1,28.4-56.3,32.7-87     c2.8-19.9,3.9-39.5,1.6-59.6c-2.6-23.1-7.2-45.5-15-67.4c-15.9-44.6-39.3-86-70.9-121.4c-24.5-27.4-54.4-50.6-86.5-68.4     c-57.3-31.7-121.6-47.3-186.5-52.5c-31.6-2.5-63.9-2.7-95.4,1.2c-3.5,0.4-7.1,0.9-10.6,1.4c-10.4,1.5-18.9,11.3-22.7,20.3     c-4,9.6-4.5,22.2,1.8,31.1c7.3,10.3,12.6,22.3,17.5,33.9c-1.2-2.8-2.4-5.6-3.5-8.4c13,31,21,63.8,25.6,97.1     c-0.4-3.1-0.8-6.2-1.3-9.3c5.6,42.2,2.7,84.8,8.2,127c5.1,39,14.4,76.1,30.9,112c29.1,63,84.2,111.5,152.1,127.9     c46.2,11.2,93.8,8.7,140-0.3c8.2-1.6,16.8-9.1,20.9-16.1c4.4-7.5,6.3-18.6,3.5-27c-6.2-19.2-23.8-28.2-43.1-24.4     c-7.7,1.5-15.4,2.8-23.2,3.8c3.1-0.4,6.2-0.8,9.3-1.3c-25,3.3-50.3,4-75.4,0.7c3.1,0.4,6.2,0.8,9.3,1.3     c-18.3-2.5-36.2-7.1-53.2-14.2c2.8,1.2,5.6,2.4,8.4,3.5c-14.5-6.2-28.1-14.1-40.6-23.7c2.4,1.8,4.7,3.6,7.1,5.5     c-12.5-9.8-23.7-21.1-33.5-33.7c1.8,2.4,3.6,4.7,5.5,7.1c-12.3-16-22.2-33.6-30.1-52.1c1.2,2.8,2.4,5.6,3.5,8.4     c-11.6-27.7-18.8-57-22.8-86.7c0.4,3.1,0.8,6.2,1.3,9.3c-2.9-21.9-3.8-43.8-4-65.8c-0.2-30.1-3.2-60.2-8.5-89.8     c-6.6-36.4-17.9-72.4-35-105.3c-2.6-5-5.3-10.1-8.6-14.8c-7,17.1-13.9,34.3-20.9,51.4c0.2,0,0.4-0.1,0.6-0.1     c-3.1,0.4-6.2,0.8-9.3,1.3c27.1-3.6,54.9-3.7,82.2-2.2c13.8,0.7,27.5,2,41.2,3.8c-3.1-0.4-6.2-0.8-9.3-1.3     c37.5,5.1,74.5,14.4,109.4,29.1c-2.8-1.2-5.6-2.4-8.4-3.5c25.6,10.9,49.9,24.7,71.9,41.6c-2.4-1.8-4.7-3.6-7.1-5.5     c19.9,15.4,37.8,33.2,53.2,53.1c-1.8-2.4-3.6-4.7-5.5-7.1c17,22.2,30.7,46.6,41.7,72.3c-1.2-2.8-2.4-5.6-3.5-8.4     c9.4,22.4,16.5,45.8,19.8,69.9c-0.4-3.1-0.8-6.2-1.3-9.3c2.5,18.6,2.7,37.3,0.3,55.9c0.4-3.1,0.8-6.2,1.3-9.3     c-2.3,16.6-6.6,32.7-13.1,48.2c1.2-2.8,2.4-5.6,3.5-8.4c-6.8,16.1-15.7,31.1-26.3,45c1.8-2.4,3.6-4.7,5.5-7.1     c-11.2,14.5-24.2,27.6-38.7,38.8c2.4-1.8,4.7-3.6,7.1-5.5c-3.9,3-7.9,6-12.1,8.5c-15.7,9.4-22.9,31.9-12.6,47.9     C378.6,569.5,399.4,576.2,416.3,566.2z"/></g></g><g><g><path d="M235.3,287.9c6.5,6.1,12.3,12.9,18,19.7c3.5,4.2,7,8.5,10.3,12.8c-1.8-2.4-3.6-4.7-5.5-7.1     c22.1,28.6,40.9,59.6,57,91.8c6.1,12.3,11.8,24.7,17.1,37.3c-1.2-2.8-2.4-5.6-3.5-8.4c18.7,44.5,32.6,90.9,41.9,138.3     c3.1,15.6,5.6,31.2,7.7,46.9c-0.4-3.1-0.8-6.2-1.3-9.3c5.6,41.8,7.3,83.8,7.3,125.9c0,11.8-0.2,23.7,0,35.5     c0.4,24.1,4.5,48.7,12.9,71.3c17.2,46.5,47.8,85.6,89.1,113.1c39,25.9,87.9,38.8,134.6,35.7c50.4-3.3,97-22.6,135.3-55.4     c34.9-30,60.5-72.9,70.5-117.8c5.1-23.1,5.7-46.1,5.7-69.5c0-25.5,0-51.1,0-76.6c0-48.8,0-97.7,0-146.5c0-0.9,0-1.8,0-2.8     c0-18.3-16.1-35.8-35-35c-19,0.8-35,15.4-35,35c0,30,0,59.9,0,89.9c0,44.6,0,89.1,0,133.7c0,15.5,0.3,31-1.6,46.4     c0.4-3.1,0.8-6.2,1.3-9.3c-2.2,16.5-6.6,32.6-13,48c1.2-2.8,2.4-5.6,3.5-8.4c-6.3,15-14.5,29.1-24.4,42c1.8-2.4,3.6-4.7,5.5-7.1     c-10.2,13.1-21.9,24.9-35.1,35.1c2.4-1.8,4.7-3.6,7.1-5.5c-13,9.9-27,18.1-42,24.4c2.8-1.2,5.6-2.4,8.4-3.5     c-15.4,6.4-31.5,10.7-48,13c3.1-0.4,6.2-0.8,9.3-1.3c-16.6,2.1-33.3,2.1-50,0c3.1,0.4,6.2,0.8,9.3,1.3c-16.5-2.2-32.6-6.6-48-13     c2.8,1.2,5.6,2.4,8.4,3.5c-15-6.3-29.1-14.5-42-24.4c2.4,1.8,4.7,3.6,7.1,5.5c-13.1-10.2-24.9-21.9-35.1-35.1     c1.8,2.4,3.6,4.7,5.5,7.1c-9.9-13-18.1-27-24.4-42c1.2,2.8,2.4,5.6,3.5,8.4c-6.4-15.4-10.7-31.5-13-48c0.4,3.1,0.8,6.2,1.3,9.3     c-2.3-18.1-1.6-36.4-1.6-54.5c0-22.9-0.2-45.9-1.6-68.8c-3.8-62-13.7-124.1-31.5-183.7c-13.7-46-32-91-54.8-133.2     c-16-29.7-34.7-57.7-55.5-84.2c-8.1-10.3-16.5-20.6-26-29.6c-0.1-0.1-0.3-0.2-0.4-0.4c-13.4-12.5-36.4-14.2-49.5,0     C222.8,252,221,274.6,235.3,287.9L235.3,287.9z"/></g></g></g><text x="0" y="1039" fill="#000000" font-size="5px" font-weight="bold" font-family="'Helvetica Neue', Helvetica, Arial-Unicode, Arial, Sans-serif">Created by shashank singh</text><text x="0" y="1044" fill="#000000" font-size="5px" font-weight="bold" font-family="'Helvetica Neue', Helvetica, Arial-Unicode, Arial, Sans-serif">from the Noun Project</text></svg>